<?xml version="1.0" encoding="utf-8"?>
<!-- Generator: Adobe Illustrator 18.0.0, SVG Export Plug-In . SVG Version: 6.00 Build 0)  -->
<!DOCTYPE svg PUBLIC "-//W3C//DTD SVG 1.1//EN" "http://www.w3.org/Graphics/SVG/1.1/DTD/svg11.dtd">
<svg version="1.1" id="Layer_1" xmlns="http://www.w3.org/2000/svg" xmlns:xlink="http://www.w3.org/1999/xlink" x="0px" y="0px"
	 viewBox="0 0 400 60.9" enable-background="new 0 0 400 60.9" xml:space="preserve">
<g>
	<polygon fill="#666666" points="66.1,6.1 57.3,6.1 47.5,56 76.5,56 78,49.7 57.9,49.7 	"/>
	<polygon fill="#666666" points="82.7,56 91.5,56 98.6,20.4 89.8,20.4 	"/>
	<path fill="#666666" d="M97.4,1.7c-3.7,0-6.7,2.8-6.7,6.7c0,3.6,2.3,6,5.7,6c3.8,0,6.9-2.6,7-6.7C103.3,4.1,100.9,1.7,97.4,1.7z"/>
	<path fill="#666666" d="M129.8,20.4l-9.2,18.4c-2.1,4.4-3.1,6.5-4,9.2h-0.2c-0.2-2.7-0.6-5-1.1-9.4l-2.4-18.2h-9.1l6.3,35.6h8.9
		l20.6-35.6H129.8z"/>
	<path fill="#666666" d="M159.8,18.9c-12.8,0-21,12.2-21,23.4c0,9.1,4.9,15.4,15.2,15.4c4.5,0,9.4-1.1,13.1-3l-0.8-6.5
		c-2.7,1.4-6,2.4-10.2,2.4c-3.5,0-6.2-1.3-7.6-3.8c-0.8-1.4-1.1-3.9-1-5.3c14.3,0.3,24.3-2.7,24.3-12.2
		C171.7,23.1,167,18.9,159.8,18.9z M148.3,34.9c1.1-4.5,4.7-9.4,10.3-9.4c2.8,0,4.7,1.4,4.7,3.8C163.3,33.8,157.5,35,148.3,34.9z"/>
	<path fill="#666666" d="M193,17.1c3.4-3.1,8.2-4.8,13-4.8c4.5,0,8,0.9,9.7,1.8l2.6-7.2c-1.4-0.9-5.6-2.3-11.2-2.3
		c-7.4,0-13.8,2.1-19.1,6.1c-7.5,5.5-12,14.5-12,25.3c0,13.3,8.5,21.5,21.9,21.5c6,0,10.6-1.1,13.4-2.4l-0.8-7.2
		c-2.7,1.2-6.6,1.9-10.3,1.9c-10.1,0-14.5-6.4-14.5-15.1C185.5,27.6,188.4,21.1,193,17.1z"/>
	<path fill="#666666" d="M217,45c0,7.5,4.4,12.4,11,12.4c4.7,0,9.7-1.4,13.3-9.4h0.2c-0.3,3.6-0.6,6.2-0.6,8h8.1
		c-0.1-4.5,0.4-11,1.5-16.5l3.9-19.1c-2.9-0.9-7.2-1.6-11.3-1.6C225.8,18.8,217,32.4,217,45z M242.5,35.9c-1.8,9.4-6.8,14.6-11,14.6
		c-3.9,0-5.3-3.2-5.3-7.1c0-8.5,6.4-17.7,14.5-17.7c1.6,0,2.7,0.1,3.6,0.4L242.5,35.9z"/>
	<path fill="#666666" d="M282.6,18.4c-5,0-9.1,4.6-11.6,8.2h-0.2c0.4-1.8,0.6-3.6,0.8-6.2H264c-0.4,2.7-0.9,8.2-1.9,13.5L257.7,56
		h8.8l2.8-14.5c1.4-7.9,5.5-14.1,11.8-14.1c0.6,0,1.2,0.1,1.7,0.2l1.7-8.8C284,18.7,283.3,18.4,282.6,18.4z"/>
	<path fill="#666666" d="M305.6,18.9c-12.8,0-21,12.2-21,23.4c0,9.1,4.9,15.4,15.2,15.4c4.5,0,9.4-1.1,13.1-3l-0.8-6.5
		c-2.7,1.4-6,2.4-10.2,2.4c-3.5,0-6.2-1.3-7.6-3.8c-0.8-1.4-1.1-3.9-1-5.3c14.3,0.3,24.3-2.7,24.3-12.2
		C317.6,23.1,312.9,18.9,305.6,18.9z M294.2,34.9c1.1-4.5,4.7-9.4,10.3-9.4c2.8,0,4.7,1.4,4.7,3.8C309.2,33.8,303.3,35,294.2,34.9z"
		/>
	<path fill="#666666" d="M342.3,18.9c-12.8,0-21,12.2-21,23.4c0,9.1,5,15.4,15.2,15.4c4.5,0,9.4-1.1,13.1-3l-0.8-6.5
		c-2.7,1.4-6,2.4-10.2,2.4c-3.5,0-6.2-1.3-7.6-3.8c-0.8-1.4-1.1-3.9-1-5.3c14.3,0.3,24.3-2.7,24.3-12.2
		C354.3,23.1,349.6,18.9,342.3,18.9z M330.9,34.9c1.1-4.5,4.7-9.4,10.3-9.4c2.8,0,4.7,1.4,4.7,3.8C345.9,33.8,340,35,330.9,34.9z"/>
	<path fill="#666666" d="M381.9,18.4c-5,0-9.1,4.6-11.6,8.2h-0.2c0.4-1.8,0.6-3.6,0.8-6.2h-7.7c-0.4,2.7-0.9,8.2-1.9,13.5L357,56
		h8.8l2.8-14.5c1.4-7.9,5.5-14.1,11.8-14.1c0.6,0,1.2,0.1,1.7,0.2l1.8-8.8C383.3,18.7,382.6,18.4,381.9,18.4z"/>
	<path fill="#666666" d="M399.2,22.1c0,3.5-2.8,6.3-6.4,6.3c-3.6,0-6.4-2.8-6.4-6.3c0-3.5,2.8-6.2,6.4-6.2
		C396.4,15.8,399.2,18.6,399.2,22.1z M388,22.1c0,2.8,2.1,5,4.9,5c2.7,0,4.7-2.2,4.7-4.9c0-2.8-2.1-5-4.8-5
		C390.1,17.1,388,19.3,388,22.1z M391.8,25.3h-1.4v-6.2c0.6-0.1,1.4-0.2,2.4-0.2c1.2,0,1.7,0.2,2.1,0.5c0.4,0.3,0.6,0.7,0.6,1.3
		c0,0.8-0.6,1.3-1.3,1.5v0.1c0.6,0.2,0.9,0.7,1.1,1.5c0.2,0.9,0.3,1.3,0.5,1.5h-1.5c-0.2-0.2-0.3-0.8-0.5-1.5
		c-0.1-0.6-0.5-0.9-1.3-0.9h-0.7V25.3z M391.9,21.8h0.7c0.8,0,1.4-0.3,1.4-0.9c0-0.6-0.4-0.9-1.3-0.9c-0.4,0-0.6,0-0.8,0.1V21.8z"/>
	<path fill="#666666" d="M46.4,13.6c0,3.5-2.9,6.3-6.3,6.3c-3.5,0-6.2-2.8-6.2-6.3c0-3.5,2.9-6.3,6.3-6.3
		C43.7,7.3,46.4,10.1,46.4,13.6z"/>
	<path fill="#666666" d="M42.5,32.2c0,3.5-2.9,6.3-6.3,6.3c-3.4,0-6.2-2.8-6.2-6.3c0-3.4,2.9-6.3,6.3-6.3
		C39.8,25.9,42.5,28.7,42.5,32.2z"/>
	<path fill="#666666" d="M38.8,51.4c0,3.5-2.9,6.3-6.3,6.3c-3.5,0-6.2-2.8-6.2-6.3c0-3.5,2.9-6.3,6.3-6.3
		C36,45.1,38.8,47.9,38.8,51.4z"/>
	<path fill="#666666" d="M23.1,41.4c0,2.8-2.3,5-5.1,5c-2.8,0-5-2.2-5-5c0-2.8,2.3-5,5.1-5C20.9,36.4,23.1,38.6,23.1,41.4z"/>
	<path fill="#666666" d="M27.3,23.4c0,2.8-2.3,5-5.1,5c-2.8,0-5-2.3-5-5c0-2.8,2.3-5,5.1-5C25.1,18.4,27.3,20.7,27.3,23.4z"/>
	<path fill="#666666" d="M9.9,31.6c0,2.4-2,4.4-4.5,4.4C2.9,36,1,34,1,31.6c0-2.4,2-4.4,4.5-4.4C7.9,27.1,9.9,29.1,9.9,31.6z"/>
</g>
</svg>
