<?xml version="1.0" encoding="utf-8"?>
<!-- Generator: Adobe Illustrator 17.1.0, SVG Export Plug-In . SVG Version: 6.00 Build 0)  -->
<!DOCTYPE svg PUBLIC "-//W3C//DTD SVG 1.1//EN" "http://www.w3.org/Graphics/SVG/1.1/DTD/svg11.dtd">
<svg version="1.1" id="Layer_1" xmlns="http://www.w3.org/2000/svg" xmlns:xlink="http://www.w3.org/1999/xlink" x="0px" y="0px"
	 viewBox="0 120 279 156" enable-background="new 0 120 279 156" xml:space="preserve">
<g>
	<path fill="#676767" d="M175.4,214.5c0.2,14.4,7.7,31.8,26.6,31.8c14.4,0,22.2-8.4,25.3-20.6h9.9c-4.2,18.3-14.9,28.9-35.2,28.9
		c-25.7,0-36.5-19.7-36.5-42.7c0-21.3,10.8-42.7,36.5-42.7c26,0,36.3,22.7,35.5,45.4h-62.1V214.5z M227.7,206.2
		c-0.5-14.9-9.7-28.8-25.7-28.8c-16.1,0-25,14.1-26.6,28.8H227.7z"/>
	<path fill="#676767" d="M258.2,151c0,4.1-3.3,7.4-7.4,7.4c-4.1,0-7.4-3.3-7.4-7.4s3.3-7.4,7.4-7.4
		C254.9,143.5,258.2,146.9,258.2,151z"/>
	<path fill="#676767" d="M239.7,150.9c0,4.1-3.3,7.4-7.4,7.4c-4.1,0-7.4-3.3-7.4-7.4s3.3-7.4,7.4-7.4S239.7,146.8,239.7,150.9z"/>
	<path fill="#676767" d="M258.2,132.3c0,4.1-3.3,7.4-7.4,7.4c-4.1,0-7.4-3.3-7.4-7.4s3.3-7.4,7.4-7.4S258.2,128.2,258.2,132.3z"/>
	<path fill="#676767" d="M258.2,169.5c0,4.1-3.3,7.4-7.4,7.4c-4.1,0-7.4-3.3-7.4-7.4c0-4.1,3.3-7.4,7.4-7.4S258.2,165.4,258.2,169.5
		z"/>
	<path fill="#676767" d="M276.8,150.9c0,4.1-3.3,7.4-7.4,7.4c-4.1,0-7.4-3.3-7.4-7.4s3.3-7.4,7.4-7.4S276.8,146.8,276.8,150.9z"/>
	<path fill="#676767" d="M78.9,211.8c0,23.2-13.5,42.7-38.2,42.7C16,254.5,2.5,235,2.5,211.8s13.5-42.7,38.2-42.7
		C65.5,169.1,78.9,188.7,78.9,211.8z M12.4,211.8c0,17.2,9.4,34.4,28.3,34.4c18.9,0,28.3-17.2,28.3-34.4s-9.4-34.4-28.3-34.4
		C21.7,177.4,12.4,194.6,12.4,211.8z"/>
	<path fill="#676767" d="M78.4,254.5V249c8.3,0,11.1-1.6,11.1-6.8l0,0v-57.8l0,0c0-5.1-2.8-6.8-11.1-6.8v-5.3l21-0.8l0,0v14.3h0.3
		c3.6-10,14.4-16.7,25.8-16.7c22.7,0,29.6,12.2,29.6,32v41.2l0,0c0,5.1,2.8,6.8,11.1,6.8v5.5h-21l0,0v-51.9
		c0-14.3-4.5-25.1-20.5-25.1c-15.6,0-25,12.2-25.3,28.5v36.2l0,0c0,5.1,2.8,6.8,12.2,6.8v5.5H78.4V254.5z"/>
	<path fill="#676767" d="M9.7,264.2l3.5,9.1l3.5-9.1h2V275h-1.4v-9l0,0l-3.5,9h-1.3L9,266l0,0v9H7.6v-10.8H9.7z"/>
	<path fill="#676767" d="M37.5,264.2v1.2h-6.2v3.4h5.8v1.2h-5.8v3.8h6.3v1.2h-7.7v-10.8H37.5L37.5,264.2z"/>
	<path fill="#676767" d="M51.8,264.2c1.7,0,3,0.4,4,1.3c0.9,0.9,1.4,2.1,1.4,3.9c0,0.9-0.1,1.7-0.3,2.4s-0.5,1.3-1,1.8
		c-0.4,0.5-1,0.8-1.7,1.1c-0.7,0.3-1.5,0.4-2.4,0.4H48v-10.8h3.8V264.2z M51.9,273.8c0.2,0,0.4,0,0.6,0c0.3,0,0.5-0.1,0.8-0.2
		c0.3-0.1,0.6-0.2,0.8-0.4c0.3-0.2,0.5-0.4,0.7-0.7c0.2-0.3,0.4-0.7,0.5-1.2c0.1-0.5,0.2-1,0.2-1.7c0-0.6-0.1-1.2-0.2-1.7
		c-0.1-0.5-0.3-0.9-0.6-1.3s-0.7-0.6-1.1-0.8c-0.5-0.2-1-0.3-1.7-0.3h-2.5v8.4h2.5V273.8z"/>
	<path fill="#676767" d="M69.2,264.2V275h-1.5v-10.8H69.2z"/>
	<path fill="#676767" d="M87.1,265.7c-0.6-0.4-1.2-0.6-2-0.6c-0.7,0-1.2,0.1-1.7,0.4c-0.5,0.2-0.9,0.6-1.2,1
		c-0.3,0.4-0.5,0.9-0.7,1.4c-0.1,0.5-0.2,1.1-0.2,1.6c0,0.6,0.1,1.2,0.2,1.8c0.1,0.6,0.4,1,0.7,1.4c0.3,0.4,0.7,0.7,1.2,1
		c0.5,0.2,1.1,0.4,1.7,0.4c0.5,0,0.9-0.1,1.3-0.2c0.4-0.2,0.7-0.4,1-0.7c0.3-0.3,0.5-0.6,0.6-1c0.2-0.4,0.3-0.8,0.3-1.2h1.5
		c-0.1,1.4-0.6,2.4-1.5,3.2c-0.8,0.8-1.9,1.1-3.4,1.1c-0.9,0-1.6-0.1-2.3-0.4c-0.6-0.3-1.2-0.7-1.6-1.2s-0.7-1.1-1-1.8
		c-0.2-0.7-0.3-1.4-0.3-2.2c0-0.8,0.1-1.5,0.3-2.2c0.2-0.7,0.6-1.3,1-1.8s1-0.9,1.7-1.2c0.7-0.3,1.4-0.4,2.3-0.4
		c0.6,0,1.1,0.1,1.7,0.2c0.5,0.2,1,0.4,1.4,0.7c0.4,0.3,0.7,0.7,1,1.1c0.3,0.4,0.4,0.9,0.5,1.5h-1.5C88,266.7,87.6,266.1,87.1,265.7
		z"/>
	<path fill="#676767" d="M104.9,264.2l4.4,10.8h-1.6l-1.2-3.3h-4.7l-1.3,3.3H99l4.3-10.8H104.9z M105.9,270.6l-1.9-5.1l0,0l-1.9,5.1
		H105.9z"/>
	<path fill="#676767" d="M120.4,264.2v9.6h5.9v1.2h-7.4v-10.8H120.4z"/>
	<path fill="#676767" d="M150,274.9c-0.6,0.2-1.3,0.4-2,0.4c-0.8,0-1.6-0.1-2.2-0.4c-0.7-0.3-1.2-0.7-1.7-1.2s-0.8-1.1-1-1.7
		c-0.2-0.7-0.4-1.3-0.4-2.1c0-0.8,0.1-1.5,0.3-2.3c0.2-0.7,0.6-1.3,1-1.9c0.4-0.5,1-1,1.7-1.3c0.7-0.3,1.4-0.5,2.3-0.5
		c0.6,0,1.2,0.1,1.7,0.2c0.5,0.1,1,0.4,1.4,0.6c0.4,0.3,0.8,0.7,1.1,1.1c0.3,0.4,0.5,1,0.6,1.6h-1.5c-0.1-0.4-0.2-0.8-0.4-1.1
		c-0.2-0.3-0.4-0.5-0.7-0.7c-0.3-0.2-0.6-0.3-1-0.4c-0.4-0.1-0.8-0.1-1.2-0.1c-0.7,0-1.3,0.1-1.7,0.4c-0.5,0.3-0.9,0.6-1.2,1
		c-0.3,0.4-0.5,0.9-0.7,1.5c-0.1,0.6-0.2,1.1-0.2,1.7c0,0.6,0.1,1.1,0.3,1.6c0.2,0.5,0.4,1,0.7,1.4c0.3,0.4,0.7,0.7,1.2,1
		c0.5,0.2,1,0.4,1.7,0.4c0.6,0,1.1-0.1,1.5-0.3c0.4-0.2,0.8-0.4,1.1-0.8c0.3-0.3,0.5-0.7,0.7-1.1c0.2-0.4,0.2-0.9,0.2-1.4H148v-1.2
		h4.9v5.7H152l-0.4-1.4C151.2,274.3,150.6,274.7,150,274.9z"/>
	<path fill="#676767" d="M169,264.2c1.1,0,1.9,0.3,2.5,0.8c0.6,0.5,0.9,1.2,0.9,2.1c0,0.7-0.2,1.2-0.5,1.7c-0.3,0.5-0.8,0.8-1.5,1
		l0,0c0.3,0.1,0.6,0.2,0.8,0.3c0.2,0.1,0.4,0.3,0.5,0.5c0.1,0.2,0.2,0.4,0.3,0.7c0.1,0.2,0.1,0.5,0.1,0.8s0,0.5,0,0.8
		c0,0.3,0,0.5,0.1,0.8c0,0.3,0.1,0.5,0.2,0.8c0.1,0.2,0.2,0.4,0.4,0.6h-1.7c-0.1-0.1-0.2-0.3-0.2-0.5s-0.1-0.4-0.1-0.6s0-0.5,0-0.8
		c0-0.3,0-0.5-0.1-0.8c0-0.3-0.1-0.5-0.2-0.8c-0.1-0.2-0.2-0.4-0.3-0.6c-0.1-0.2-0.3-0.3-0.5-0.4c-0.2-0.1-0.5-0.2-0.9-0.2h-3.6v4.6
		h-1.5v-10.8L169,264.2L169,264.2z M169.3,269.1c0.3,0,0.6-0.1,0.8-0.3c0.2-0.1,0.4-0.3,0.6-0.6c0.1-0.2,0.2-0.6,0.2-1
		c0-0.5-0.2-1-0.5-1.3s-0.8-0.5-1.5-0.5h-3.7v3.8h3.1C168.6,269.2,169,269.2,169.3,269.1z"/>
	<path fill="#676767" d="M182.7,267.5c0.2-0.7,0.6-1.3,1-1.8s1-0.9,1.7-1.3c0.7-0.3,1.4-0.5,2.3-0.5c0.9,0,1.7,0.2,2.3,0.5
		c0.7,0.3,1.2,0.7,1.7,1.3c0.5,0.6,0.8,1.1,1,1.8c0.2,0.7,0.3,1.4,0.3,2.1s-0.1,1.5-0.3,2.1c-0.2,0.7-0.6,1.3-1,1.8
		c-0.4,0.5-1,0.9-1.7,1.3c-0.7,0.3-1.4,0.5-2.3,0.5c-0.9,0-1.7-0.2-2.3-0.5c-0.7-0.3-1.2-0.7-1.7-1.3c-0.4-0.5-0.8-1.1-1-1.8
		c-0.2-0.7-0.3-1.4-0.3-2.1S182.5,268.2,182.7,267.5z M184.1,271.2c0.1,0.5,0.4,1,0.7,1.4c0.3,0.4,0.7,0.8,1.2,1
		c0.5,0.3,1.1,0.4,1.8,0.4s1.3-0.1,1.8-0.4c0.5-0.3,0.9-0.6,1.2-1c0.3-0.4,0.5-0.9,0.7-1.4c0.1-0.5,0.2-1.1,0.2-1.6
		s-0.1-1.1-0.2-1.6c-0.1-0.5-0.4-1-0.7-1.4c-0.3-0.4-0.7-0.8-1.2-1c-0.5-0.3-1.1-0.4-1.8-0.4s-1.3,0.1-1.8,0.4
		c-0.5,0.3-0.9,0.6-1.2,1c-0.3,0.4-0.5,0.9-0.7,1.4c-0.1,0.5-0.2,1.1-0.2,1.6C183.9,270.2,184,270.7,184.1,271.2z"/>
	<path fill="#676767" d="M211.4,274.3c-0.8,0.7-1.8,1-3.3,1c-1.4,0-2.6-0.3-3.4-1c-0.8-0.7-1.2-1.7-1.2-3.2v-6.9h1.5v6.9
		c0,1,0.3,1.7,0.8,2.2c0.5,0.5,1.3,0.8,2.3,0.8c1,0,1.7-0.3,2.2-0.8c0.5-0.5,0.7-1.2,0.7-2.2v-6.9h1.5v6.9
		C212.5,272.5,212.1,273.6,211.4,274.3z"/>
	<path fill="#676767" d="M228.4,264.2c1.1,0,2,0.3,2.6,0.8c0.6,0.6,0.9,1.3,0.9,2.4c0,1-0.3,1.8-0.9,2.4c-0.6,0.6-1.4,0.8-2.6,0.8
		H225v4.4h-1.5v-10.8H228.4L228.4,264.2z M227.9,269.4c0.8,0,1.5-0.2,1.9-0.5s0.6-0.8,0.6-1.5c0-0.6-0.2-1.1-0.6-1.5
		c-0.4-0.3-1-0.5-1.9-0.5H225v4H227.9z"/>
</g>
</svg>
