<?xml version="1.0" encoding="utf-8"?>
<!-- Generator: Adobe Illustrator 17.1.0, SVG Export Plug-In . SVG Version: 6.00 Build 0)  -->
<!DOCTYPE svg PUBLIC "-//W3C//DTD SVG 1.1//EN" "http://www.w3.org/Graphics/SVG/1.1/DTD/svg11.dtd">
<svg version="1.1" id="Layer_1" xmlns="http://www.w3.org/2000/svg" xmlns:xlink="http://www.w3.org/1999/xlink" x="0px" y="0px"
	 viewBox="0 0 400 93.4" enable-background="new 0 0 400 93.4" xml:space="preserve">
<g>
	<g>
		<path fill="#666666" d="M3.8,74.1C3.2,73.7,2.7,73,2.7,72c0-1.5,1.3-2.8,2.8-2.8c0.7,0,1.4,0.3,1.8,0.6c7.5,6.7,15,9.7,25.2,9.7
			c11.2,0,18.9-6.3,18.9-14.9v-0.2c0-7.9-4.2-12.5-21.2-15.9C12.3,45,5.1,38.9,5.1,27.5v-0.2c0-11.1,10.2-19.7,24-19.7
			c10,0,17,2.6,23.8,7.7c0.5,0.4,1.2,1.2,1.2,2.2c0,1.5-1.3,2.8-2.8,2.8c-0.6,0-1.3-0.2-1.8-0.6c-6.5-5-13-7.1-20.6-7.1
			c-11,0-18.3,6.3-18.3,14.1V27c0,7.9,4.1,12.7,21.8,16.4C49.7,46.9,57,53.1,57,64v0.2c0,12.1-10.4,20.4-24.8,20.4
			C21,84.6,12.2,81.1,3.8,74.1z"/>
	</g>
	<g>
		<path fill="#666666" d="M147.6,11.5c0-1.5,1.3-2.8,2.8-2.8h0.9c1.2,0,2,0.6,2.8,1.6l50.4,64V11.3c0-1.5,1.2-2.7,2.7-2.7
			c1.5,0,2.7,1.2,2.7,2.7l0,70.5c0,1.3-1,2.4-2.2,2.4h-0.4c-1.1,0-1.9-0.7-2.8-1.8L153,17.2v64.5c0,1.5-1.2,2.7-2.7,2.7
			c-1.5,0-2.7-1.2-2.7-2.7V11.5z"/>
	</g>
	<g>
		<path fill="#666666" d="M220.7,80.3l32-69.3c0.7-1.6,1.8-2.7,3.7-2.7h0.2c1.9,0,3,1.1,3.7,2.7l31.9,69c0.3,0.6,0.4,1.2,0.4,1.7
			c0,1.4-1.2,2.6-2.7,2.6c-1.3,0-2.2-1-2.8-2.1L278.4,63h-44.1l-8.8,19.3c-0.5,1.3-1.4,2-2.7,2c-1.4,0-2.6-1.1-2.6-2.3
			C220.3,81.6,220.4,80.9,220.7,80.3z M276.1,57.9l-19.7-43.3l-19.8,43.3H276.1z"/>
	</g>
	<g>
		<path fill="#666666" d="M306.1,14.2h-23.9c-1.4,0-2.6-1.2-2.6-2.6c0-1.4,1.2-2.6,2.6-2.6h53.4c1.4,0,2.6,1.2,2.6,2.6
			c0,1.4-1.2,2.6-2.6,2.6h-23.9v67.3c0,1.5-1.3,2.8-2.8,2.8c-1.5,0-2.8-1.3-2.8-2.8V14.2z"/>
	</g>
	<g>
		<path fill="#666666" d="M325.4,80.3l32-69.3c0.7-1.6,1.8-2.7,3.7-2.7h0.2c1.9,0,3,1.1,3.7,2.7l31.9,69c0.3,0.6,0.4,1.2,0.4,1.7
			c0,1.4-1.2,2.6-2.7,2.6c-1.3,0-2.2-1-2.8-2.1L383.1,63h-44.1l-8.8,19.3c-0.5,1.3-1.4,2-2.7,2c-1.4,0-2.6-1.1-2.6-2.3
			C324.9,81.6,325,81,325.4,80.3z M380.7,58l-19.7-43.3L341.3,58H380.7z"/>
	</g>
	<g>
		<circle fill="#666666" cx="69.9" cy="11.9" r="6.5"/>
		<circle fill="#666666" cx="81.1" cy="28.7" r="6.1"/>
		<path fill="#666666" d="M92.4,51.2c-3.2,0-5.7-2.5-5.8-5.7c0-3.2,2.5-5.7,5.7-5.8c3.2,0,5.7,2.5,5.8,5.7
			C98.1,48.6,95.6,51.2,92.4,51.2z"/>
		<circle fill="#666666" cx="100.5" cy="63.3" r="5.3"/>
		<path fill="#666666" d="M105.6,83.5c0,2.7-2.2,5-4.9,5c-2.7,0-5-2.2-5-4.9c0-2.7,2.2-5,4.9-5C103.4,78.5,105.6,80.7,105.6,83.5z"
			/>
		<circle fill="#666666" cx="129.9" cy="11.4" r="6.5"/>
		<circle fill="#666666" cx="118.9" cy="28.4" r="6.1"/>
		<path fill="#666666" d="M108,51.1c3.2,0,5.7-2.6,5.7-5.8c0-3.2-2.6-5.7-5.8-5.7c-3.2,0-5.7,2.6-5.7,5.8
			C102.2,48.6,104.8,51.1,108,51.1z"/>
	</g>
</g>
</svg>
